<svg xmlns="http://www.w3.org/2000/svg" version="1.1" xmlns:xlink="http://www.w3.org/1999/xlink" xmlns:svgjs="http://svgjs.com/svgjs" width="1440" height="560" preserveAspectRatio="none" viewBox="0 0 1440 560"><g mask="url(&quot;#SvgjsMask1041&quot;)" fill="none"><rect width="1440" height="560" x="0" y="0" fill="url(#SvgjsLinearGradient1042)"></rect><path d="M1277.98-105.12C1077.11-92.4 929.93 284.14 573.62 284.77 217.31 285.4 50.61 112.44-130.74 111.17" stroke="rgba(51,121,194,0.58)" stroke-width="2"></path><path d="M1306.67-105.22C1131.91-103.89 980.83 62.99 629.04 66.53 277.24 70.07 128.54 271.43-48.6 273.73" stroke="rgba(51,121,194,0.58)" stroke-width="2"></path><path d="M1107.45-54.29C945.43 3.29 923.53 469.74 680.36 484.84 437.2 499.94 466.82 414.84 253.28 414.84 39.73 414.84-65.61 484.61-173.81 484.84" stroke="rgba(51,121,194,0.58)" stroke-width="2"></path><path d="M694.32-53.54C594.75-9.1 638.27 304.45 447.22 305.86 256.17 307.27 83.95 134.76-46.98 132.26" stroke="rgba(51,121,194,0.58)" stroke-width="2"></path><path d="M1147.23-62.3C976.92-7.33 946.18 472.26 687.35 486.3 428.53 500.34 457.41 416.3 227.48 416.3-2.46 416.3-116.11 486.1-232.4 486.3" stroke="rgba(51,121,194,0.58)" stroke-width="2"></path></g><defs><mask id="SvgjsMask1041"><rect width="1440" height="560" fill="#ffffff"></rect></mask><linearGradient x1="15.28%" y1="-39.29%" x2="84.72%" y2="139.29%" gradientUnits="userSpaceOnUse" id="SvgjsLinearGradient1042"><stop stop-color="#0e2a47" offset="0"></stop><stop stop-color="#00459e" offset="1"></stop></linearGradient></defs></svg>