<?xml version="1.0" standalone="no"?>
<svg viewBox="0 0 200 200" xmlns="http://www.w3.org/2000/svg">
  <path fill="#F0544F" d="M31.4,-50.1C44.6,-46.8,61.9,-46.3,73.6,-38.4C85.3,-30.5,91.2,-15.3,89.4,-1C87.7,13.2,78.1,26.4,69.3,39.2C60.6,52.1,52.5,64.6,41.1,71.3C29.7,78,14.8,78.8,-0.1,78.8C-14.9,78.9,-29.9,78.3,-39,70.3C-48,62.2,-51.2,46.8,-55.9,33.9C-60.5,20.9,-66.7,10.5,-70.9,-2.4C-75,-15.2,-77,-30.4,-70.5,-40.3C-64,-50.1,-49.1,-54.6,-35.9,-58C-22.8,-61.3,-11.4,-63.5,-1.1,-61.5C9.1,-59.6,18.2,-53.4,31.4,-50.1Z" transform="translate(100 100)" />
</svg>
